<mxfile host="app.diagrams.net" agent="Mozilla/5.0 (Windows NT 10.0; Win64; x64) AppleWebKit/537.36 (KHTML, like Gecko) Chrome/139.0.0.0 Safari/537.36" version="28.2.0">
  <diagram name="Trang-1" id="som6Jo1YyFcqKAgG6UUh">
    <mxGraphModel grid="1" page="1" gridSize="10" guides="1" tooltips="1" connect="1" arrows="1" fold="1" pageScale="1" pageWidth="827" pageHeight="1169" math="0" shadow="0">
      <root>
        <mxCell id="0" />
        <mxCell id="1" parent="0" />
        <mxCell id="GWCFhPJtoM5cidSJ9zWH-1" value="HRM&amp;nbsp;" style="ellipse;whiteSpace=wrap;html=1;aspect=fixed;" vertex="1" parent="1">
          <mxGeometry x="240" y="180" width="240" height="240" as="geometry" />
        </mxCell>
        <mxCell id="8BwqEWMZFK84yUEhuN9T-1" value="Admin" style="rounded=0;whiteSpace=wrap;html=1;" vertex="1" parent="1">
          <mxGeometry x="310" y="-30" width="120" height="60" as="geometry" />
        </mxCell>
        <mxCell id="8BwqEWMZFK84yUEhuN9T-2" value="Employee" style="rounded=0;whiteSpace=wrap;html=1;" vertex="1" parent="1">
          <mxGeometry x="660" y="110" width="120" height="60" as="geometry" />
        </mxCell>
        <mxCell id="8BwqEWMZFK84yUEhuN9T-3" value="Dept.Manager" style="rounded=0;whiteSpace=wrap;html=1;" vertex="1" parent="1">
          <mxGeometry x="680" y="385" width="120" height="60" as="geometry" />
        </mxCell>
        <mxCell id="8BwqEWMZFK84yUEhuN9T-4" value="HR" style="rounded=0;whiteSpace=wrap;html=1;" vertex="1" parent="1">
          <mxGeometry y="170" width="120" height="60" as="geometry" />
        </mxCell>
        <mxCell id="8BwqEWMZFK84yUEhuN9T-5" value="HR Manager" style="rounded=0;whiteSpace=wrap;html=1;" vertex="1" parent="1">
          <mxGeometry x="260" y="540" width="120" height="60" as="geometry" />
        </mxCell>
        <mxCell id="8BwqEWMZFK84yUEhuN9T-6" value="Guest" style="rounded=0;whiteSpace=wrap;html=1;" vertex="1" parent="1">
          <mxGeometry y="385" width="120" height="60" as="geometry" />
        </mxCell>
        <mxCell id="8BwqEWMZFK84yUEhuN9T-49" value="" style="endArrow=classic;html=1;rounded=0;" edge="1" parent="1">
          <mxGeometry width="50" height="50" relative="1" as="geometry">
            <mxPoint x="415" y="90" as="sourcePoint" />
            <mxPoint x="414" y="30" as="targetPoint" />
          </mxGeometry>
        </mxCell>
        <mxCell id="8BwqEWMZFK84yUEhuN9T-50" value="User list" style="text;html=1;align=center;verticalAlign=middle;whiteSpace=wrap;rounded=0;" vertex="1" parent="1">
          <mxGeometry x="384" y="90" width="60" height="30" as="geometry" />
        </mxCell>
        <mxCell id="8BwqEWMZFK84yUEhuN9T-51" value="" style="endArrow=none;html=1;rounded=0;" edge="1" parent="1">
          <mxGeometry width="50" height="50" relative="1" as="geometry">
            <mxPoint x="369" y="70" as="sourcePoint" />
            <mxPoint x="369" y="30" as="targetPoint" />
          </mxGeometry>
        </mxCell>
        <mxCell id="8BwqEWMZFK84yUEhuN9T-52" value="Create/Edit users" style="text;html=1;align=center;verticalAlign=middle;whiteSpace=wrap;rounded=0;" vertex="1" parent="1">
          <mxGeometry x="330" y="80" width="60" height="30" as="geometry" />
        </mxCell>
        <mxCell id="8BwqEWMZFK84yUEhuN9T-54" value="" style="endArrow=classic;html=1;rounded=0;" edge="1" parent="1">
          <mxGeometry width="50" height="50" relative="1" as="geometry">
            <mxPoint x="370" y="120" as="sourcePoint" />
            <mxPoint x="360" y="180" as="targetPoint" />
          </mxGeometry>
        </mxCell>
        <mxCell id="8BwqEWMZFK84yUEhuN9T-55" value="" style="endArrow=none;html=1;rounded=0;" edge="1" parent="1">
          <mxGeometry width="50" height="50" relative="1" as="geometry">
            <mxPoint x="280" y="80" as="sourcePoint" />
            <mxPoint x="330" y="30" as="targetPoint" />
            <Array as="points">
              <mxPoint x="310" y="50" />
            </Array>
          </mxGeometry>
        </mxCell>
        <mxCell id="8BwqEWMZFK84yUEhuN9T-56" value="Role assignment" style="text;html=1;align=center;verticalAlign=middle;whiteSpace=wrap;rounded=0;" vertex="1" parent="1">
          <mxGeometry x="210" y="80" width="130" height="30" as="geometry" />
        </mxCell>
        <mxCell id="8BwqEWMZFK84yUEhuN9T-57" value="" style="endArrow=classic;html=1;rounded=0;entryX=0.431;entryY=-0.003;entryDx=0;entryDy=0;entryPerimeter=0;" edge="1" parent="1" source="8BwqEWMZFK84yUEhuN9T-56" target="GWCFhPJtoM5cidSJ9zWH-1">
          <mxGeometry width="50" height="50" relative="1" as="geometry">
            <mxPoint x="270" y="290" as="sourcePoint" />
            <mxPoint x="300" y="180" as="targetPoint" />
          </mxGeometry>
        </mxCell>
        <mxCell id="8BwqEWMZFK84yUEhuN9T-58" value="" style="endArrow=none;html=1;rounded=0;" edge="1" parent="1">
          <mxGeometry width="50" height="50" relative="1" as="geometry">
            <mxPoint x="120" y="210" as="sourcePoint" />
            <mxPoint x="170" y="210" as="targetPoint" />
            <Array as="points" />
          </mxGeometry>
        </mxCell>
        <mxCell id="8BwqEWMZFK84yUEhuN9T-59" value="Employee profiles" style="text;html=1;align=center;verticalAlign=middle;whiteSpace=wrap;rounded=0;" vertex="1" parent="1">
          <mxGeometry x="170" y="200" width="60" height="30" as="geometry" />
        </mxCell>
        <mxCell id="8BwqEWMZFK84yUEhuN9T-60" value="" style="endArrow=classic;html=1;rounded=0;exitX=1;exitY=0.75;exitDx=0;exitDy=0;entryX=0.075;entryY=0.214;entryDx=0;entryDy=0;entryPerimeter=0;" edge="1" parent="1" source="8BwqEWMZFK84yUEhuN9T-59" target="GWCFhPJtoM5cidSJ9zWH-1">
          <mxGeometry width="50" height="50" relative="1" as="geometry">
            <mxPoint x="260" y="310" as="sourcePoint" />
            <mxPoint x="310" y="260" as="targetPoint" />
          </mxGeometry>
        </mxCell>
        <mxCell id="8BwqEWMZFK84yUEhuN9T-61" value="" style="endArrow=classic;html=1;rounded=0;" edge="1" parent="1">
          <mxGeometry width="50" height="50" relative="1" as="geometry">
            <mxPoint x="210" y="255" as="sourcePoint" />
            <mxPoint x="250" y="245" as="targetPoint" />
          </mxGeometry>
        </mxCell>
        <mxCell id="8BwqEWMZFK84yUEhuN9T-62" value="Attendance data" style="text;html=1;align=center;verticalAlign=middle;whiteSpace=wrap;rounded=0;" vertex="1" parent="1">
          <mxGeometry x="160" y="235" width="60" height="30" as="geometry" />
        </mxCell>
        <mxCell id="8BwqEWMZFK84yUEhuN9T-63" value="" style="endArrow=none;html=1;rounded=0;exitX=1;exitY=0.75;exitDx=0;exitDy=0;" edge="1" parent="1" source="8BwqEWMZFK84yUEhuN9T-4">
          <mxGeometry width="50" height="50" relative="1" as="geometry">
            <mxPoint x="150" y="340" as="sourcePoint" />
            <mxPoint x="160" y="250" as="targetPoint" />
          </mxGeometry>
        </mxCell>
        <mxCell id="8BwqEWMZFK84yUEhuN9T-64" value="" style="endArrow=classic;html=1;rounded=0;exitX=1;exitY=0.5;exitDx=0;exitDy=0;" edge="1" parent="1" source="8BwqEWMZFK84yUEhuN9T-65">
          <mxGeometry width="50" height="50" relative="1" as="geometry">
            <mxPoint x="190" y="295" as="sourcePoint" />
            <mxPoint x="240" y="275" as="targetPoint" />
          </mxGeometry>
        </mxCell>
        <mxCell id="8BwqEWMZFK84yUEhuN9T-65" value="Contracts" style="text;html=1;align=center;verticalAlign=middle;whiteSpace=wrap;rounded=0;" vertex="1" parent="1">
          <mxGeometry x="130" y="265" width="60" height="30" as="geometry" />
        </mxCell>
        <mxCell id="8BwqEWMZFK84yUEhuN9T-66" value="" style="endArrow=none;html=1;rounded=0;exitX=1;exitY=1;exitDx=0;exitDy=0;" edge="1" parent="1" source="8BwqEWMZFK84yUEhuN9T-4">
          <mxGeometry width="50" height="50" relative="1" as="geometry">
            <mxPoint x="150" y="370" as="sourcePoint" />
            <mxPoint x="120" y="280" as="targetPoint" />
          </mxGeometry>
        </mxCell>
        <mxCell id="8BwqEWMZFK84yUEhuN9T-67" value="" style="endArrow=none;html=1;rounded=0;" edge="1" parent="1">
          <mxGeometry width="50" height="50" relative="1" as="geometry">
            <mxPoint x="120" y="190" as="sourcePoint" />
            <mxPoint x="150" y="180" as="targetPoint" />
          </mxGeometry>
        </mxCell>
        <mxCell id="8BwqEWMZFK84yUEhuN9T-68" value="Recruitment info" style="text;html=1;align=center;verticalAlign=middle;whiteSpace=wrap;rounded=0;" vertex="1" parent="1">
          <mxGeometry x="160" y="170" width="60" height="30" as="geometry" />
        </mxCell>
        <mxCell id="8BwqEWMZFK84yUEhuN9T-69" value="" style="endArrow=classic;html=1;rounded=0;" edge="1" parent="1">
          <mxGeometry width="50" height="50" relative="1" as="geometry">
            <mxPoint x="240" y="177.5" as="sourcePoint" />
            <mxPoint x="300" y="192.5" as="targetPoint" />
            <Array as="points">
              <mxPoint x="270" y="182.5" />
            </Array>
          </mxGeometry>
        </mxCell>
        <mxCell id="8BwqEWMZFK84yUEhuN9T-70" value="" style="endArrow=none;html=1;rounded=0;" edge="1" parent="1">
          <mxGeometry width="50" height="50" relative="1" as="geometry">
            <mxPoint x="90" y="300" as="sourcePoint" />
            <mxPoint x="70" y="230" as="targetPoint" />
          </mxGeometry>
        </mxCell>
        <mxCell id="8BwqEWMZFK84yUEhuN9T-71" value="Payroll data" style="text;html=1;align=center;verticalAlign=middle;whiteSpace=wrap;rounded=0;" vertex="1" parent="1">
          <mxGeometry x="100" y="295" width="60" height="30" as="geometry" />
        </mxCell>
        <mxCell id="8BwqEWMZFK84yUEhuN9T-72" value="" style="endArrow=classic;html=1;rounded=0;exitX=1;exitY=0.25;exitDx=0;exitDy=0;entryX=0;entryY=0.5;entryDx=0;entryDy=0;" edge="1" parent="1" source="8BwqEWMZFK84yUEhuN9T-71" target="GWCFhPJtoM5cidSJ9zWH-1">
          <mxGeometry width="50" height="50" relative="1" as="geometry">
            <mxPoint x="280" y="350" as="sourcePoint" />
            <mxPoint x="320" y="310" as="targetPoint" />
          </mxGeometry>
        </mxCell>
        <mxCell id="8BwqEWMZFK84yUEhuN9T-73" value="" style="endArrow=none;html=1;rounded=0;exitX=-0.003;exitY=0.603;exitDx=0;exitDy=0;exitPerimeter=0;" edge="1" parent="1" source="GWCFhPJtoM5cidSJ9zWH-1">
          <mxGeometry width="50" height="50" relative="1" as="geometry">
            <mxPoint x="180" y="330" as="sourcePoint" />
            <mxPoint x="190" y="330" as="targetPoint" />
          </mxGeometry>
        </mxCell>
        <mxCell id="8BwqEWMZFK84yUEhuN9T-75" value="" style="endArrow=none;html=1;rounded=0;exitX=0.644;exitY=0.006;exitDx=0;exitDy=0;exitPerimeter=0;" edge="1" parent="1" source="GWCFhPJtoM5cidSJ9zWH-1">
          <mxGeometry width="50" height="50" relative="1" as="geometry">
            <mxPoint x="410" y="160" as="sourcePoint" />
            <mxPoint x="414" y="120" as="targetPoint" />
          </mxGeometry>
        </mxCell>
        <mxCell id="8BwqEWMZFK84yUEhuN9T-76" value="Employee records" style="text;html=1;align=center;verticalAlign=middle;whiteSpace=wrap;rounded=0;" vertex="1" parent="1">
          <mxGeometry x="120" y="325" width="60" height="30" as="geometry" />
        </mxCell>
        <mxCell id="8BwqEWMZFK84yUEhuN9T-77" value="" style="endArrow=classic;html=1;rounded=0;" edge="1" parent="1">
          <mxGeometry width="50" height="50" relative="1" as="geometry">
            <mxPoint x="50" y="330" as="sourcePoint" />
            <mxPoint x="50" y="230" as="targetPoint" />
          </mxGeometry>
        </mxCell>
        <mxCell id="8BwqEWMZFK84yUEhuN9T-78" value="" style="endArrow=none;html=1;rounded=0;" edge="1" parent="1">
          <mxGeometry width="50" height="50" relative="1" as="geometry">
            <mxPoint x="50" y="330" as="sourcePoint" />
            <mxPoint x="120" y="340" as="targetPoint" />
          </mxGeometry>
        </mxCell>
        <mxCell id="8BwqEWMZFK84yUEhuN9T-79" value="" style="endArrow=classic;html=1;rounded=0;" edge="1" parent="1">
          <mxGeometry width="50" height="50" relative="1" as="geometry">
            <mxPoint x="30" y="360" as="sourcePoint" />
            <mxPoint x="30" y="235" as="targetPoint" />
          </mxGeometry>
        </mxCell>
        <mxCell id="8BwqEWMZFK84yUEhuN9T-80" value="" style="endArrow=none;html=1;rounded=0;" edge="1" parent="1">
          <mxGeometry width="50" height="50" relative="1" as="geometry">
            <mxPoint x="30" y="360" as="sourcePoint" />
            <mxPoint x="90" y="370" as="targetPoint" />
            <Array as="points" />
          </mxGeometry>
        </mxCell>
        <mxCell id="8BwqEWMZFK84yUEhuN9T-81" value="Payroll reports" style="text;html=1;align=center;verticalAlign=middle;whiteSpace=wrap;rounded=0;" vertex="1" parent="1">
          <mxGeometry x="90" y="355" width="60" height="30" as="geometry" />
        </mxCell>
        <mxCell id="8BwqEWMZFK84yUEhuN9T-83" value="" style="endArrow=none;html=1;rounded=0;exitX=1;exitY=0.25;exitDx=0;exitDy=0;" edge="1" parent="1" source="8BwqEWMZFK84yUEhuN9T-81">
          <mxGeometry width="50" height="50" relative="1" as="geometry">
            <mxPoint x="200" y="405" as="sourcePoint" />
            <mxPoint x="250" y="355" as="targetPoint" />
          </mxGeometry>
        </mxCell>
        <mxCell id="8BwqEWMZFK84yUEhuN9T-84" value="" style="endArrow=none;html=1;rounded=0;" edge="1" parent="1" target="8BwqEWMZFK84yUEhuN9T-85">
          <mxGeometry width="50" height="50" relative="1" as="geometry">
            <mxPoint x="120" y="420" as="sourcePoint" />
            <mxPoint x="150" y="420" as="targetPoint" />
          </mxGeometry>
        </mxCell>
        <mxCell id="8BwqEWMZFK84yUEhuN9T-85" value="Job applications" style="text;html=1;align=center;verticalAlign=middle;whiteSpace=wrap;rounded=0;" vertex="1" parent="1">
          <mxGeometry x="160" y="380" width="60" height="30" as="geometry" />
        </mxCell>
        <mxCell id="8BwqEWMZFK84yUEhuN9T-86" value="" style="endArrow=classic;html=1;rounded=0;exitX=1;exitY=0.25;exitDx=0;exitDy=0;entryX=0.083;entryY=0.792;entryDx=0;entryDy=0;entryPerimeter=0;" edge="1" parent="1" source="8BwqEWMZFK84yUEhuN9T-85" target="GWCFhPJtoM5cidSJ9zWH-1">
          <mxGeometry width="50" height="50" relative="1" as="geometry">
            <mxPoint x="230" y="435" as="sourcePoint" />
            <mxPoint x="280" y="385" as="targetPoint" />
          </mxGeometry>
        </mxCell>
        <mxCell id="8BwqEWMZFK84yUEhuN9T-87" value="" style="endArrow=none;html=1;rounded=0;entryX=0;entryY=1;entryDx=0;entryDy=0;" edge="1" parent="1" target="GWCFhPJtoM5cidSJ9zWH-1">
          <mxGeometry width="50" height="50" relative="1" as="geometry">
            <mxPoint x="210" y="430" as="sourcePoint" />
            <mxPoint x="280" y="470" as="targetPoint" />
          </mxGeometry>
        </mxCell>
        <mxCell id="8BwqEWMZFK84yUEhuN9T-88" value="Public company info. job posting" style="text;html=1;align=center;verticalAlign=middle;whiteSpace=wrap;rounded=0;" vertex="1" parent="1">
          <mxGeometry x="120" y="430" width="100" height="30" as="geometry" />
        </mxCell>
        <mxCell id="b-r1b89HBYKBb8aHnN1J-1" value="" style="endArrow=classic;html=1;rounded=0;" edge="1" parent="1">
          <mxGeometry width="50" height="50" relative="1" as="geometry">
            <mxPoint x="130" y="460" as="sourcePoint" />
            <mxPoint x="70" y="445" as="targetPoint" />
          </mxGeometry>
        </mxCell>
        <mxCell id="b-r1b89HBYKBb8aHnN1J-2" value="" style="endArrow=none;html=1;rounded=0;entryX=0.692;entryY=0.889;entryDx=0;entryDy=0;exitX=0;exitY=0.25;exitDx=0;exitDy=0;entryPerimeter=0;" edge="1" parent="1" source="8BwqEWMZFK84yUEhuN9T-5" target="b-r1b89HBYKBb8aHnN1J-3">
          <mxGeometry width="50" height="50" relative="1" as="geometry">
            <mxPoint x="195" y="550" as="sourcePoint" />
            <mxPoint x="205" y="525" as="targetPoint" />
          </mxGeometry>
        </mxCell>
        <mxCell id="b-r1b89HBYKBb8aHnN1J-3" value="Task assignment for HR Staff" style="text;html=1;align=center;verticalAlign=middle;whiteSpace=wrap;rounded=0;" vertex="1" parent="1">
          <mxGeometry x="110" y="460" width="160" height="30" as="geometry" />
        </mxCell>
        <mxCell id="b-r1b89HBYKBb8aHnN1J-4" value="" style="endArrow=classic;html=1;rounded=0;" edge="1" parent="1">
          <mxGeometry width="50" height="50" relative="1" as="geometry">
            <mxPoint x="260" y="460" as="sourcePoint" />
            <mxPoint x="310" y="410" as="targetPoint" />
          </mxGeometry>
        </mxCell>
        <mxCell id="b-r1b89HBYKBb8aHnN1J-5" value="" style="endArrow=none;html=1;rounded=0;exitX=0.161;exitY=-0.022;exitDx=0;exitDy=0;exitPerimeter=0;" edge="1" parent="1" source="8BwqEWMZFK84yUEhuN9T-5">
          <mxGeometry width="50" height="50" relative="1" as="geometry">
            <mxPoint x="250" y="525" as="sourcePoint" />
            <mxPoint x="280" y="510" as="targetPoint" />
          </mxGeometry>
        </mxCell>
        <mxCell id="b-r1b89HBYKBb8aHnN1J-6" value="Approve HR Reports and requests" style="text;html=1;align=center;verticalAlign=middle;whiteSpace=wrap;rounded=0;" vertex="1" parent="1">
          <mxGeometry x="240" y="480" width="120" height="30" as="geometry" />
        </mxCell>
        <mxCell id="b-r1b89HBYKBb8aHnN1J-7" value="" style="endArrow=classic;html=1;rounded=0;" edge="1" parent="1">
          <mxGeometry width="50" height="50" relative="1" as="geometry">
            <mxPoint x="290" y="470" as="sourcePoint" />
            <mxPoint x="340" y="420" as="targetPoint" />
          </mxGeometry>
        </mxCell>
        <mxCell id="b-r1b89HBYKBb8aHnN1J-8" value="" style="endArrow=none;html=1;rounded=0;exitX=0.542;exitY=1.006;exitDx=0;exitDy=0;exitPerimeter=0;" edge="1" parent="1" source="GWCFhPJtoM5cidSJ9zWH-1">
          <mxGeometry width="50" height="50" relative="1" as="geometry">
            <mxPoint x="380" y="480" as="sourcePoint" />
            <mxPoint x="380" y="480" as="targetPoint" />
          </mxGeometry>
        </mxCell>
        <mxCell id="b-r1b89HBYKBb8aHnN1J-9" value="HR Stats" style="text;html=1;align=center;verticalAlign=middle;whiteSpace=wrap;rounded=0;" vertex="1" parent="1">
          <mxGeometry x="354" y="490" width="60" height="30" as="geometry" />
        </mxCell>
        <mxCell id="b-r1b89HBYKBb8aHnN1J-10" value="" style="endArrow=classic;html=1;rounded=0;entryX=0.75;entryY=0;entryDx=0;entryDy=0;exitX=0.25;exitY=1;exitDx=0;exitDy=0;" edge="1" parent="1" source="b-r1b89HBYKBb8aHnN1J-9" target="8BwqEWMZFK84yUEhuN9T-5">
          <mxGeometry width="50" height="50" relative="1" as="geometry">
            <mxPoint x="380" y="450" as="sourcePoint" />
            <mxPoint x="430" y="400" as="targetPoint" />
          </mxGeometry>
        </mxCell>
        <mxCell id="b-r1b89HBYKBb8aHnN1J-11" value="" style="endArrow=none;html=1;rounded=0;entryX=0.625;entryY=1.006;entryDx=0;entryDy=0;entryPerimeter=0;" edge="1" parent="1" target="GWCFhPJtoM5cidSJ9zWH-1">
          <mxGeometry width="50" height="50" relative="1" as="geometry">
            <mxPoint x="430" y="530" as="sourcePoint" />
            <mxPoint x="404" y="410" as="targetPoint" />
          </mxGeometry>
        </mxCell>
        <mxCell id="b-r1b89HBYKBb8aHnN1J-12" value="Reports" style="text;html=1;align=center;verticalAlign=middle;whiteSpace=wrap;rounded=0;" vertex="1" parent="1">
          <mxGeometry x="400" y="530" width="60" height="30" as="geometry" />
        </mxCell>
        <mxCell id="b-r1b89HBYKBb8aHnN1J-13" value="" style="endArrow=classic;html=1;rounded=0;entryX=1;entryY=0.5;entryDx=0;entryDy=0;exitX=0;exitY=1;exitDx=0;exitDy=0;" edge="1" parent="1" source="b-r1b89HBYKBb8aHnN1J-12" target="8BwqEWMZFK84yUEhuN9T-5">
          <mxGeometry width="50" height="50" relative="1" as="geometry">
            <mxPoint x="380" y="450" as="sourcePoint" />
            <mxPoint x="430" y="400" as="targetPoint" />
          </mxGeometry>
        </mxCell>
        <mxCell id="b-r1b89HBYKBb8aHnN1J-14" value="" style="endArrow=none;html=1;rounded=0;exitX=1;exitY=0;exitDx=0;exitDy=0;" edge="1" parent="1" source="b-r1b89HBYKBb8aHnN1J-16" target="GWCFhPJtoM5cidSJ9zWH-1">
          <mxGeometry width="50" height="50" relative="1" as="geometry">
            <mxPoint x="490" y="580" as="sourcePoint" />
            <mxPoint x="390" y="420" as="targetPoint" />
          </mxGeometry>
        </mxCell>
        <mxCell id="b-r1b89HBYKBb8aHnN1J-15" value="" style="endArrow=classic;html=1;rounded=0;" edge="1" parent="1">
          <mxGeometry width="50" height="50" relative="1" as="geometry">
            <mxPoint x="410" y="620" as="sourcePoint" />
            <mxPoint x="354" y="600" as="targetPoint" />
          </mxGeometry>
        </mxCell>
        <mxCell id="b-r1b89HBYKBb8aHnN1J-16" value="Task lists" style="text;html=1;align=center;verticalAlign=middle;whiteSpace=wrap;rounded=0;" vertex="1" parent="1">
          <mxGeometry x="414" y="590" width="60" height="30" as="geometry" />
        </mxCell>
        <mxCell id="b-r1b89HBYKBb8aHnN1J-19" value="" style="endArrow=classic;html=1;rounded=0;exitX=0;exitY=0.25;exitDx=0;exitDy=0;" edge="1" parent="1" source="8BwqEWMZFK84yUEhuN9T-3">
          <mxGeometry width="50" height="50" relative="1" as="geometry">
            <mxPoint x="610" y="410" as="sourcePoint" />
            <mxPoint x="455" y="380" as="targetPoint" />
          </mxGeometry>
        </mxCell>
        <mxCell id="b-r1b89HBYKBb8aHnN1J-20" value="Task assignment for employees" style="edgeLabel;html=1;align=center;verticalAlign=middle;resizable=0;points=[];" connectable="0" vertex="1" parent="b-r1b89HBYKBb8aHnN1J-19">
          <mxGeometry x="-0.0343" y="2" relative="1" as="geometry">
            <mxPoint as="offset" />
          </mxGeometry>
        </mxCell>
        <mxCell id="b-r1b89HBYKBb8aHnN1J-21" value="" style="endArrow=classic;html=1;rounded=0;exitX=0;exitY=0.75;exitDx=0;exitDy=0;" edge="1" parent="1" source="8BwqEWMZFK84yUEhuN9T-3">
          <mxGeometry width="50" height="50" relative="1" as="geometry">
            <mxPoint x="380" y="450" as="sourcePoint" />
            <mxPoint x="430" y="400" as="targetPoint" />
            <Array as="points" />
          </mxGeometry>
        </mxCell>
        <mxCell id="b-r1b89HBYKBb8aHnN1J-22" value="Approve/Reject" style="edgeLabel;html=1;align=center;verticalAlign=middle;resizable=0;points=[];" connectable="0" vertex="1" parent="b-r1b89HBYKBb8aHnN1J-21">
          <mxGeometry x="0.023" y="1" relative="1" as="geometry">
            <mxPoint as="offset" />
          </mxGeometry>
        </mxCell>
        <mxCell id="b-r1b89HBYKBb8aHnN1J-25" value="" style="endArrow=classic;html=1;rounded=0;" edge="1" parent="1">
          <mxGeometry width="50" height="50" relative="1" as="geometry">
            <mxPoint x="600" y="480" as="sourcePoint" />
            <mxPoint x="680" y="445" as="targetPoint" />
          </mxGeometry>
        </mxCell>
        <mxCell id="b-r1b89HBYKBb8aHnN1J-26" value="" style="endArrow=none;html=1;rounded=0;entryX=0.756;entryY=0.922;entryDx=0;entryDy=0;entryPerimeter=0;" edge="1" parent="1" target="GWCFhPJtoM5cidSJ9zWH-1">
          <mxGeometry width="50" height="50" relative="1" as="geometry">
            <mxPoint x="510" y="470" as="sourcePoint" />
            <mxPoint x="420" y="410" as="targetPoint" />
          </mxGeometry>
        </mxCell>
        <mxCell id="b-r1b89HBYKBb8aHnN1J-27" value="Employee task stats" style="text;html=1;align=center;verticalAlign=middle;whiteSpace=wrap;rounded=0;" vertex="1" parent="1">
          <mxGeometry x="530" y="460" width="60" height="30" as="geometry" />
        </mxCell>
        <mxCell id="b-r1b89HBYKBb8aHnN1J-28" value="" style="endArrow=none;html=1;rounded=0;" edge="1" parent="1">
          <mxGeometry width="50" height="50" relative="1" as="geometry">
            <mxPoint x="510" y="530" as="sourcePoint" />
            <mxPoint x="414" y="410" as="targetPoint" />
          </mxGeometry>
        </mxCell>
        <mxCell id="b-r1b89HBYKBb8aHnN1J-29" value="" style="endArrow=classic;html=1;rounded=0;" edge="1" parent="1">
          <mxGeometry width="50" height="50" relative="1" as="geometry">
            <mxPoint x="630" y="540" as="sourcePoint" />
            <mxPoint x="730" y="445" as="targetPoint" />
          </mxGeometry>
        </mxCell>
        <mxCell id="b-r1b89HBYKBb8aHnN1J-30" value="Request Status" style="text;html=1;align=center;verticalAlign=middle;whiteSpace=wrap;rounded=0;" vertex="1" parent="1">
          <mxGeometry x="540" y="530" width="60" height="30" as="geometry" />
        </mxCell>
        <mxCell id="b-r1b89HBYKBb8aHnN1J-31" value="" style="endArrow=classic;html=1;rounded=0;exitX=0;exitY=0.5;exitDx=0;exitDy=0;" edge="1" parent="1" source="8BwqEWMZFK84yUEhuN9T-2">
          <mxGeometry width="50" height="50" relative="1" as="geometry">
            <mxPoint x="380" y="250" as="sourcePoint" />
            <mxPoint x="430" y="200" as="targetPoint" />
          </mxGeometry>
        </mxCell>
        <mxCell id="b-r1b89HBYKBb8aHnN1J-32" value="Personal info updates" style="edgeLabel;html=1;align=center;verticalAlign=middle;resizable=0;points=[];" connectable="0" vertex="1" parent="b-r1b89HBYKBb8aHnN1J-31">
          <mxGeometry x="0.0173" y="-4" relative="1" as="geometry">
            <mxPoint as="offset" />
          </mxGeometry>
        </mxCell>
        <mxCell id="b-r1b89HBYKBb8aHnN1J-33" value="" style="endArrow=classic;html=1;rounded=0;exitX=0;exitY=1;exitDx=0;exitDy=0;entryX=0.875;entryY=0.25;entryDx=0;entryDy=0;entryPerimeter=0;" edge="1" parent="1" source="8BwqEWMZFK84yUEhuN9T-2" target="GWCFhPJtoM5cidSJ9zWH-1">
          <mxGeometry width="50" height="50" relative="1" as="geometry">
            <mxPoint x="380" y="250" as="sourcePoint" />
            <mxPoint x="430" y="200" as="targetPoint" />
          </mxGeometry>
        </mxCell>
        <mxCell id="b-r1b89HBYKBb8aHnN1J-34" value="Leave Requests" style="edgeLabel;html=1;align=center;verticalAlign=middle;resizable=0;points=[];" connectable="0" vertex="1" parent="b-r1b89HBYKBb8aHnN1J-33">
          <mxGeometry x="-0.0667" relative="1" as="geometry">
            <mxPoint as="offset" />
          </mxGeometry>
        </mxCell>
        <mxCell id="b-r1b89HBYKBb8aHnN1J-35" value="" style="endArrow=classic;html=1;rounded=0;exitX=0.106;exitY=1.033;exitDx=0;exitDy=0;exitPerimeter=0;entryX=0.981;entryY=0.45;entryDx=0;entryDy=0;entryPerimeter=0;" edge="1" parent="1" source="8BwqEWMZFK84yUEhuN9T-2" target="GWCFhPJtoM5cidSJ9zWH-1">
          <mxGeometry width="50" height="50" relative="1" as="geometry">
            <mxPoint x="580" y="295" as="sourcePoint" />
            <mxPoint x="630" y="245" as="targetPoint" />
          </mxGeometry>
        </mxCell>
        <mxCell id="b-r1b89HBYKBb8aHnN1J-36" value="Task status updates" style="edgeLabel;html=1;align=center;verticalAlign=middle;resizable=0;points=[];" connectable="0" vertex="1" parent="b-r1b89HBYKBb8aHnN1J-35">
          <mxGeometry x="0.1746" y="-2" relative="1" as="geometry">
            <mxPoint as="offset" />
          </mxGeometry>
        </mxCell>
        <mxCell id="b-r1b89HBYKBb8aHnN1J-37" value="" style="endArrow=none;html=1;rounded=0;" edge="1" parent="1">
          <mxGeometry width="50" height="50" relative="1" as="geometry">
            <mxPoint x="480" y="325" as="sourcePoint" />
            <mxPoint x="630" y="280" as="targetPoint" />
          </mxGeometry>
        </mxCell>
        <mxCell id="b-r1b89HBYKBb8aHnN1J-38" value="Approved/Rejected requests" style="text;html=1;align=center;verticalAlign=middle;whiteSpace=wrap;rounded=0;" vertex="1" parent="1">
          <mxGeometry x="620" y="250" width="60" height="30" as="geometry" />
        </mxCell>
        <mxCell id="b-r1b89HBYKBb8aHnN1J-39" value="" style="endArrow=classic;html=1;rounded=0;exitX=0.75;exitY=0;exitDx=0;exitDy=0;" edge="1" parent="1" source="b-r1b89HBYKBb8aHnN1J-38">
          <mxGeometry width="50" height="50" relative="1" as="geometry">
            <mxPoint x="650" y="220" as="sourcePoint" />
            <mxPoint x="700" y="170" as="targetPoint" />
          </mxGeometry>
        </mxCell>
        <mxCell id="b-r1b89HBYKBb8aHnN1J-40" value="" style="endArrow=none;html=1;rounded=0;" edge="1" parent="1">
          <mxGeometry width="50" height="50" relative="1" as="geometry">
            <mxPoint x="460" y="365" as="sourcePoint" />
            <mxPoint x="740" y="310" as="targetPoint" />
          </mxGeometry>
        </mxCell>
        <mxCell id="b-r1b89HBYKBb8aHnN1J-41" value="Task assignments" style="text;html=1;align=center;verticalAlign=middle;whiteSpace=wrap;rounded=0;" vertex="1" parent="1">
          <mxGeometry x="720" y="260" width="60" height="30" as="geometry" />
        </mxCell>
        <mxCell id="b-r1b89HBYKBb8aHnN1J-42" value="" style="endArrow=classic;html=1;rounded=0;" edge="1" parent="1">
          <mxGeometry width="50" height="50" relative="1" as="geometry">
            <mxPoint x="750" y="250" as="sourcePoint" />
            <mxPoint x="750" y="170" as="targetPoint" />
          </mxGeometry>
        </mxCell>
      </root>
    </mxGraphModel>
  </diagram>
</mxfile>
